<mxfile modified="2019-10-16T10:09:17.552Z" host="www.draw.io" agent="Mozilla/5.0 (Windows NT 10.0; Win64; x64) AppleWebKit/537.36 (KHTML, like Gecko) Chrome/77.0.3865.90 Safari/537.36" etag="QGUSoyVxmEATsDr7zXiB" version="12.1.1" type="github" pages="1">
  <diagram id="1JJ-UvxjRfw-XplDersZ" name="Page-1">
    <mxGraphModel dx="868" dy="450" grid="1" gridSize="10" guides="1" tooltips="1" connect="1" arrows="1" fold="1" page="1" pageScale="1" pageWidth="1169" pageHeight="827" math="0" shadow="1">
      <root>
        <mxCell id="0"/>
        <mxCell id="1" parent="0"/>
        <mxCell id="VsJJfjXyTHTrgc_qXbFI-94" value="" style="rounded=0;whiteSpace=wrap;html=1;fillColor=#d5e8d4;strokeColor=#82b366;" parent="1" vertex="1">
          <mxGeometry x="870" y="454" width="240" height="309" as="geometry"/>
        </mxCell>
        <mxCell id="VsJJfjXyTHTrgc_qXbFI-21" value="" style="rounded=0;whiteSpace=wrap;html=1;fillColor=#fff2cc;strokeColor=#d6b656;" parent="1" vertex="1">
          <mxGeometry x="70" y="72" width="370" height="388" as="geometry"/>
        </mxCell>
        <mxCell id="VsJJfjXyTHTrgc_qXbFI-18" value="" style="rounded=0;whiteSpace=wrap;html=1;fillColor=#e1d5e7;strokeColor=#9673a6;" parent="1" vertex="1">
          <mxGeometry x="440" y="72" width="670" height="389" as="geometry"/>
        </mxCell>
        <mxCell id="VsJJfjXyTHTrgc_qXbFI-50" value="" style="rounded=0;whiteSpace=wrap;html=1;fillColor=#dae8fc;strokeColor=#6c8ebf;" parent="1" vertex="1">
          <mxGeometry x="70" y="461" width="800" height="302" as="geometry"/>
        </mxCell>
        <mxCell id="VsJJfjXyTHTrgc_qXbFI-38" value="" style="strokeColor=#666666;html=1;labelPosition=right;align=left;spacingLeft=15;shadow=0;dashed=0;fillColor=#ffffff;outlineConnect=0;shape=mxgraph.rackGeneral.horCableDuct;rotation=90;" parent="1" vertex="1">
          <mxGeometry x="950" y="529" width="100" height="15" as="geometry"/>
        </mxCell>
        <mxCell id="VsJJfjXyTHTrgc_qXbFI-4" value="OneQ WebServer" style="aspect=fixed;perimeter=ellipsePerimeter;html=1;align=center;shadow=0;dashed=0;spacingTop=3;image;image=img/lib/active_directory/web_server.svg;" parent="1" vertex="1">
          <mxGeometry x="140" y="174.5" width="70" height="88" as="geometry"/>
        </mxCell>
        <mxCell id="VsJJfjXyTHTrgc_qXbFI-5" value="External Load Balancer" style="shape=image;html=1;verticalAlign=top;verticalLabelPosition=bottom;labelBackgroundColor=#ffffff;imageAspect=0;aspect=fixed;image=https://cdn2.iconfinder.com/data/icons/amazon-aws-stencils/100/Compute__Networking_copy_Elastic_Load_Balancing-128.png;rotation=0;" parent="1" vertex="1">
          <mxGeometry x="142.5" y="309" width="65" height="65" as="geometry"/>
        </mxCell>
        <mxCell id="VsJJfjXyTHTrgc_qXbFI-6" value="" style="endArrow=classic;startArrow=classic;html=1;entryX=0.5;entryY=1;entryDx=0;entryDy=0;exitX=0.5;exitY=0;exitDx=0;exitDy=0;" parent="1" source="VsJJfjXyTHTrgc_qXbFI-5" target="VsJJfjXyTHTrgc_qXbFI-4" edge="1">
          <mxGeometry width="50" height="50" relative="1" as="geometry">
            <mxPoint x="110" y="530" as="sourcePoint"/>
            <mxPoint x="160" y="480" as="targetPoint"/>
          </mxGeometry>
        </mxCell>
        <mxCell id="VsJJfjXyTHTrgc_qXbFI-9" value="Internal Load Balancer" style="shape=image;html=1;verticalAlign=top;verticalLabelPosition=bottom;labelBackgroundColor=#ffffff;imageAspect=0;aspect=fixed;image=https://cdn2.iconfinder.com/data/icons/amazon-aws-stencils/100/Compute__Networking_copy_Elastic_Load_Balancing-128.png;rotation=0;" parent="1" vertex="1">
          <mxGeometry x="562" y="187.5" width="62" height="62" as="geometry"/>
        </mxCell>
        <mxCell id="VsJJfjXyTHTrgc_qXbFI-10" value="Internal DNS Server" style="shadow=0;dashed=0;html=1;strokeColor=none;fillColor=#4495D1;labelPosition=center;verticalLabelPosition=bottom;verticalAlign=top;align=center;outlineConnect=0;shape=mxgraph.veeam.dns;" parent="1" vertex="1">
          <mxGeometry x="760" y="190" width="60" height="55" as="geometry"/>
        </mxCell>
        <mxCell id="VsJJfjXyTHTrgc_qXbFI-11" value="" style="endArrow=classic;startArrow=classic;html=1;entryX=1;entryY=0.5;entryDx=0;entryDy=0;" parent="1" source="VsJJfjXyTHTrgc_qXbFI-10" target="VsJJfjXyTHTrgc_qXbFI-9" edge="1">
          <mxGeometry width="50" height="50" relative="1" as="geometry">
            <mxPoint x="559" y="590" as="sourcePoint"/>
            <mxPoint x="609" y="540" as="targetPoint"/>
          </mxGeometry>
        </mxCell>
        <mxCell id="VsJJfjXyTHTrgc_qXbFI-13" value="" style="fontColor=#0066CC;verticalAlign=top;verticalLabelPosition=bottom;labelPosition=center;align=center;html=1;outlineConnect=0;fillColor=#CCCCCC;strokeColor=#6881B3;gradientColor=none;gradientDirection=north;strokeWidth=2;shape=mxgraph.networks.pc;" parent="1" vertex="1">
          <mxGeometry x="950" y="139.5" width="100" height="70" as="geometry"/>
        </mxCell>
        <mxCell id="VsJJfjXyTHTrgc_qXbFI-14" value="" style="endArrow=classic;startArrow=classic;html=1;entryX=0;entryY=0.5;entryDx=0;entryDy=0;entryPerimeter=0;" parent="1" source="VsJJfjXyTHTrgc_qXbFI-10" target="VsJJfjXyTHTrgc_qXbFI-13" edge="1">
          <mxGeometry width="50" height="50" relative="1" as="geometry">
            <mxPoint x="870" y="220" as="sourcePoint"/>
            <mxPoint x="950" y="189" as="targetPoint"/>
          </mxGeometry>
        </mxCell>
        <mxCell id="VsJJfjXyTHTrgc_qXbFI-16" value="" style="endArrow=classic;startArrow=classic;html=1;" parent="1" source="VsJJfjXyTHTrgc_qXbFI-10" target="VsJJfjXyTHTrgc_qXbFI-59" edge="1">
          <mxGeometry width="50" height="50" relative="1" as="geometry">
            <mxPoint x="600" y="264.1981132075472" as="sourcePoint"/>
            <mxPoint x="742" y="310" as="targetPoint"/>
          </mxGeometry>
        </mxCell>
        <mxCell id="VsJJfjXyTHTrgc_qXbFI-37" value="" style="endArrow=classic;startArrow=classic;html=1;" parent="1" source="VsJJfjXyTHTrgc_qXbFI-41" target="VsJJfjXyTHTrgc_qXbFI-85" edge="1">
          <mxGeometry width="50" height="50" relative="1" as="geometry">
            <mxPoint x="1000" y="564.5" as="sourcePoint"/>
            <mxPoint x="1000" y="688.4000000000001" as="targetPoint"/>
          </mxGeometry>
        </mxCell>
        <mxCell id="VsJJfjXyTHTrgc_qXbFI-40" value="Firewall" style="verticalLabelPosition=bottom;html=1;fillColor=#6ABD46;verticalAlign=top;align=center;points=[[0.06,0.06,0],[0.94,0.06,0],[0.94,0.94,0],[0.06,0.94,0],[0.25,0,0],[0.5,0,0],[0.75,0,0],[1,0.25,0],[1,0.5,0],[1,0.75,0],[0.75,1,0],[0.5,1,0],[0.25,1,0],[0,0.75,0],[0,0.5,0],[0,0.25,0]];pointerEvents=1;shape=mxgraph.cisco_safe.architecture.firewall;" parent="1" vertex="1">
          <mxGeometry x="975" y="430" width="50" height="60" as="geometry"/>
        </mxCell>
        <mxCell id="VsJJfjXyTHTrgc_qXbFI-43" value="" style="endArrow=classic;startArrow=classic;html=1;exitX=0.5;exitY=0;exitDx=0;exitDy=0;exitPerimeter=0;" parent="1" source="VsJJfjXyTHTrgc_qXbFI-40" target="VsJJfjXyTHTrgc_qXbFI-10" edge="1">
          <mxGeometry width="50" height="50" relative="1" as="geometry">
            <mxPoint x="770" y="290" as="sourcePoint"/>
            <mxPoint x="820" y="240" as="targetPoint"/>
          </mxGeometry>
        </mxCell>
        <mxCell id="VsJJfjXyTHTrgc_qXbFI-44" value="" style="fontColor=#0066CC;verticalAlign=top;verticalLabelPosition=bottom;labelPosition=center;align=center;html=1;outlineConnect=0;fillColor=#CCCCCC;strokeColor=#6881B3;gradientColor=none;gradientDirection=north;strokeWidth=2;shape=mxgraph.networks.pc;" parent="1" vertex="1">
          <mxGeometry x="480" y="577" width="100" height="70" as="geometry"/>
        </mxCell>
        <mxCell id="VsJJfjXyTHTrgc_qXbFI-45" value="" style="html=1;verticalLabelPosition=bottom;align=center;labelBackgroundColor=#ffffff;verticalAlign=top;strokeWidth=2;strokeColor=#0080F0;fillColor=#ffffff;shadow=0;dashed=0;shape=mxgraph.ios7.icons.smartphone;" parent="1" vertex="1">
          <mxGeometry x="363" y="680" width="40" height="70" as="geometry"/>
        </mxCell>
        <mxCell id="VsJJfjXyTHTrgc_qXbFI-48" value="" style="pointerEvents=1;shadow=0;dashed=0;html=1;strokeColor=none;fillColor=#505050;labelPosition=center;verticalLabelPosition=bottom;verticalAlign=top;outlineConnect=0;align=center;shape=mxgraph.office.devices.laptop;" parent="1" vertex="1">
          <mxGeometry x="339" y="483" width="88" height="61" as="geometry"/>
        </mxCell>
        <mxCell id="VsJJfjXyTHTrgc_qXbFI-52" value="AWS / VPC" style="text;strokeColor=none;fillColor=none;html=1;fontSize=24;fontStyle=1;verticalAlign=middle;align=center;" parent="1" vertex="1">
          <mxGeometry x="239" y="80" width="100" height="40" as="geometry"/>
        </mxCell>
        <mxCell id="VsJJfjXyTHTrgc_qXbFI-53" value="RBL Network" style="text;strokeColor=none;fillColor=none;html=1;fontSize=24;fontStyle=1;verticalAlign=middle;align=center;" parent="1" vertex="1">
          <mxGeometry x="750" y="80" width="100" height="40" as="geometry"/>
        </mxCell>
        <mxCell id="VsJJfjXyTHTrgc_qXbFI-54" value="Internet" style="text;strokeColor=none;fillColor=none;html=1;fontSize=24;fontStyle=1;verticalAlign=middle;align=center;" parent="1" vertex="1">
          <mxGeometry x="543" y="461" width="100" height="40" as="geometry"/>
        </mxCell>
        <mxCell id="VsJJfjXyTHTrgc_qXbFI-41" value="" style="html=1;strokeWidth=1;shadow=0;dashed=0;shape=mxgraph.ios7.misc.vpn;fillColor=#007AFF;strokeColor=none;buttonText=;strokeColor2=#222222;fontColor=#222222;fontSize=8;verticalLabelPosition=bottom;verticalAlign=top;align=center;" parent="1" vertex="1">
          <mxGeometry x="980" y="562" width="40" height="40" as="geometry"/>
        </mxCell>
        <mxCell id="VsJJfjXyTHTrgc_qXbFI-59" value="" style="pointerEvents=1;shadow=0;dashed=0;html=1;strokeColor=none;fillColor=#505050;labelPosition=center;verticalLabelPosition=bottom;verticalAlign=top;outlineConnect=0;align=center;shape=mxgraph.office.devices.laptop;" parent="1" vertex="1">
          <mxGeometry x="748" y="322" width="88" height="61" as="geometry"/>
        </mxCell>
        <mxCell id="VsJJfjXyTHTrgc_qXbFI-19" value="" style="strokeColor=#666666;html=1;labelPosition=right;align=left;spacingLeft=15;shadow=0;dashed=0;fillColor=#ffffff;outlineConnect=0;shape=mxgraph.rackGeneral.horCableDuct;" parent="1" vertex="1">
          <mxGeometry x="360" y="211" width="160" height="15" as="geometry"/>
        </mxCell>
        <mxCell id="VsJJfjXyTHTrgc_qXbFI-55" value="Firewall" style="verticalLabelPosition=bottom;html=1;fillColor=#6ABD46;verticalAlign=top;align=center;points=[[0.06,0.06,0],[0.94,0.06,0],[0.94,0.94,0],[0.06,0.94,0],[0.25,0,0],[0.5,0,0],[0.75,0,0],[1,0.25,0],[1,0.5,0],[1,0.75,0],[0.75,1,0],[0.5,1,0],[0.25,1,0],[0,0.75,0],[0,0.5,0],[0,0.25,0]];pointerEvents=1;shape=mxgraph.cisco_safe.architecture.firewall;rotation=0;" parent="1" vertex="1">
          <mxGeometry x="415" y="190" width="50" height="60" as="geometry"/>
        </mxCell>
        <mxCell id="VsJJfjXyTHTrgc_qXbFI-62" value="" style="endArrow=classic;startArrow=classic;html=1;exitX=1;exitY=0.5;exitDx=0;exitDy=0;entryX=0;entryY=0.5;entryDx=0;entryDy=0;" parent="1" source="VsJJfjXyTHTrgc_qXbFI-4" target="VsJJfjXyTHTrgc_qXbFI-9" edge="1">
          <mxGeometry width="50" height="50" relative="1" as="geometry">
            <mxPoint x="230" y="218" as="sourcePoint"/>
            <mxPoint x="500" y="218.80838323353294" as="targetPoint"/>
          </mxGeometry>
        </mxCell>
        <mxCell id="VsJJfjXyTHTrgc_qXbFI-67" value="Respective ISP&#39;s DNS Server" style="shadow=0;dashed=0;html=1;strokeColor=none;fillColor=#4495D1;labelPosition=center;verticalLabelPosition=bottom;verticalAlign=top;align=center;outlineConnect=0;shape=mxgraph.veeam.dns;" parent="1" vertex="1">
          <mxGeometry x="152.5" y="589.5" width="44.8" height="44.8" as="geometry"/>
        </mxCell>
        <mxCell id="VsJJfjXyTHTrgc_qXbFI-75" value="Active Directory" style="aspect=fixed;perimeter=ellipsePerimeter;html=1;align=center;shadow=0;dashed=0;spacingTop=3;image;image=img/lib/active_directory/active_directory.svg;" parent="1" vertex="1">
          <mxGeometry x="568" y="327" width="50" height="42.5" as="geometry"/>
        </mxCell>
        <mxCell id="VsJJfjXyTHTrgc_qXbFI-76" value="" style="endArrow=classic;startArrow=classic;html=1;entryX=0.5;entryY=1;entryDx=0;entryDy=0;exitX=0.5;exitY=0;exitDx=0;exitDy=0;" parent="1" source="VsJJfjXyTHTrgc_qXbFI-75" target="VsJJfjXyTHTrgc_qXbFI-9" edge="1">
          <mxGeometry width="50" height="50" relative="1" as="geometry">
            <mxPoint x="400" y="830" as="sourcePoint"/>
            <mxPoint x="450" y="780" as="targetPoint"/>
          </mxGeometry>
        </mxCell>
        <mxCell id="VsJJfjXyTHTrgc_qXbFI-77" value="SMTP Server" style="verticalLabelPosition=bottom;aspect=fixed;html=1;verticalAlign=top;strokeColor=none;align=center;outlineConnect=0;shape=mxgraph.citrix.smtp_server;" parent="1" vertex="1">
          <mxGeometry x="577" y="86" width="32" height="39" as="geometry"/>
        </mxCell>
        <mxCell id="VsJJfjXyTHTrgc_qXbFI-78" value="" style="endArrow=classic;startArrow=classic;html=1;exitX=0.5;exitY=0;exitDx=0;exitDy=0;" parent="1" source="VsJJfjXyTHTrgc_qXbFI-9" target="VsJJfjXyTHTrgc_qXbFI-77" edge="1">
          <mxGeometry width="50" height="50" relative="1" as="geometry">
            <mxPoint x="500" y="190" as="sourcePoint"/>
            <mxPoint x="550" y="140" as="targetPoint"/>
          </mxGeometry>
        </mxCell>
        <mxCell id="VsJJfjXyTHTrgc_qXbFI-80" value="" style="endArrow=classic;startArrow=classic;html=1;entryX=0.5;entryY=1;entryDx=0;entryDy=0;" parent="1" source="VsJJfjXyTHTrgc_qXbFI-90" target="VsJJfjXyTHTrgc_qXbFI-5" edge="1">
          <mxGeometry width="50" height="50" relative="1" as="geometry">
            <mxPoint x="250" y="610" as="sourcePoint"/>
            <mxPoint x="300" y="560" as="targetPoint"/>
          </mxGeometry>
        </mxCell>
        <mxCell id="VsJJfjXyTHTrgc_qXbFI-81" value="" style="endArrow=classic;startArrow=classic;html=1;exitX=0.559;exitY=-0.019;exitDx=0;exitDy=0;exitPerimeter=0;" parent="1" source="VsJJfjXyTHTrgc_qXbFI-45" target="VsJJfjXyTHTrgc_qXbFI-67" edge="1">
          <mxGeometry width="50" height="50" relative="1" as="geometry">
            <mxPoint x="270" y="630" as="sourcePoint"/>
            <mxPoint x="310" y="600" as="targetPoint"/>
          </mxGeometry>
        </mxCell>
        <mxCell id="VsJJfjXyTHTrgc_qXbFI-82" value="" style="endArrow=classic;startArrow=classic;html=1;" parent="1" source="VsJJfjXyTHTrgc_qXbFI-44" target="VsJJfjXyTHTrgc_qXbFI-67" edge="1">
          <mxGeometry width="50" height="50" relative="1" as="geometry">
            <mxPoint x="166.15999999999997" y="671.0000000000001" as="sourcePoint"/>
            <mxPoint x="301.5971753986332" y="517.8" as="targetPoint"/>
          </mxGeometry>
        </mxCell>
        <mxCell id="VsJJfjXyTHTrgc_qXbFI-83" value="" style="endArrow=classic;startArrow=classic;html=1;" parent="1" source="VsJJfjXyTHTrgc_qXbFI-48" target="VsJJfjXyTHTrgc_qXbFI-67" edge="1">
          <mxGeometry width="50" height="50" relative="1" as="geometry">
            <mxPoint x="316.06870229007643" y="670" as="sourcePoint"/>
            <mxPoint x="320.71603053435115" y="517.8" as="targetPoint"/>
          </mxGeometry>
        </mxCell>
        <mxCell id="VsJJfjXyTHTrgc_qXbFI-85" value="RBL Issued Laptops" style="pointerEvents=1;shadow=0;dashed=0;html=1;strokeColor=none;fillColor=#505050;labelPosition=center;verticalLabelPosition=bottom;verticalAlign=top;outlineConnect=0;align=center;shape=mxgraph.office.devices.laptop;" parent="1" vertex="1">
          <mxGeometry x="956" y="667" width="88" height="61" as="geometry"/>
        </mxCell>
        <mxCell id="VsJJfjXyTHTrgc_qXbFI-90" value="Firewall" style="verticalLabelPosition=bottom;html=1;fillColor=#6ABD46;verticalAlign=top;align=center;points=[[0.06,0.06,0],[0.94,0.06,0],[0.94,0.94,0],[0.06,0.94,0],[0.25,0,0],[0.5,0,0],[0.75,0,0],[1,0.25,0],[1,0.5,0],[1,0.75,0],[0.75,1,0],[0.5,1,0],[0.25,1,0],[0,0.75,0],[0,0.5,0],[0,0.25,0]];pointerEvents=1;shape=mxgraph.cisco_safe.architecture.firewall;rotation=0;" parent="1" vertex="1">
          <mxGeometry x="150" y="421" width="50" height="60" as="geometry"/>
        </mxCell>
        <mxCell id="VsJJfjXyTHTrgc_qXbFI-91" value="" style="endArrow=classic;startArrow=classic;html=1;entryX=0.5;entryY=1;entryDx=0;entryDy=0;" parent="1" source="VsJJfjXyTHTrgc_qXbFI-67" target="VsJJfjXyTHTrgc_qXbFI-90" edge="1">
          <mxGeometry width="50" height="50" relative="1" as="geometry">
            <mxPoint x="172.7237354085603" y="521.9999999999999" as="sourcePoint"/>
            <mxPoint x="175" y="364.5" as="targetPoint"/>
          </mxGeometry>
        </mxCell>
      </root>
    </mxGraphModel>
  </diagram>
</mxfile>
